<mxfile host="app.diagrams.net" modified="2023-04-17T07:09:04.659Z" agent="Mozilla/5.0 (Windows NT 10.0; Win64; x64) AppleWebKit/537.36 (KHTML, like Gecko) Chrome/114.0.0.0 Safari/537.36 Edg/114.0.0.0" etag="As-ZNMHt6kJKK82lr2m0" version="21.1.8" type="device">
  <diagram name="Page-1" id="ICI-8vK0ts3EgLsvYybd">
    <mxGraphModel dx="3104" dy="739" grid="1" gridSize="10" guides="1" tooltips="1" connect="1" arrows="1" fold="1" page="1" pageScale="1" pageWidth="850" pageHeight="1100" math="0" shadow="0">
      <root>
        <mxCell id="0" />
        <mxCell id="1" parent="0" />
        <mxCell id="e3dgtLt3XknYAATpjzhd-1" value="user" style="shape=umlActor;verticalLabelPosition=bottom;verticalAlign=top;html=1;outlineConnect=0;" parent="1" vertex="1">
          <mxGeometry x="-430" y="140" width="30" height="60" as="geometry" />
        </mxCell>
        <mxCell id="e3dgtLt3XknYAATpjzhd-4" value="" style="rounded=0;whiteSpace=wrap;html=1;" parent="1" vertex="1">
          <mxGeometry x="-320" y="10" width="860" height="850" as="geometry" />
        </mxCell>
        <mxCell id="e3dgtLt3XknYAATpjzhd-2" value="admin" style="shape=umlActor;verticalLabelPosition=bottom;verticalAlign=top;html=1;outlineConnect=0;" parent="1" vertex="1">
          <mxGeometry x="790" y="170" width="30" height="60" as="geometry" />
        </mxCell>
        <mxCell id="e3dgtLt3XknYAATpjzhd-7" value="web system" style="text;html=1;strokeColor=none;fillColor=none;align=center;verticalAlign=middle;whiteSpace=wrap;rounded=0;" parent="1" vertex="1">
          <mxGeometry x="20" y="10" width="130" height="30" as="geometry" />
        </mxCell>
        <mxCell id="0JroKW-J_Lcgd8uyPRVh-32" style="edgeStyle=orthogonalEdgeStyle;rounded=0;orthogonalLoop=1;jettySize=auto;html=1;entryX=0.5;entryY=0.5;entryDx=0;entryDy=0;entryPerimeter=0;endArrow=none;endFill=0;" edge="1" parent="1" source="e3dgtLt3XknYAATpjzhd-8" target="e3dgtLt3XknYAATpjzhd-2">
          <mxGeometry relative="1" as="geometry">
            <Array as="points">
              <mxPoint x="360" y="60" />
              <mxPoint x="360" y="200" />
            </Array>
          </mxGeometry>
        </mxCell>
        <mxCell id="e3dgtLt3XknYAATpjzhd-8" value="login" style="ellipse;whiteSpace=wrap;html=1;" parent="1" vertex="1">
          <mxGeometry x="95" y="40" width="100" height="40" as="geometry" />
        </mxCell>
        <mxCell id="e3dgtLt3XknYAATpjzhd-9" value="Registration" style="ellipse;whiteSpace=wrap;html=1;" parent="1" vertex="1">
          <mxGeometry x="95" y="90" width="90" height="40" as="geometry" />
        </mxCell>
        <mxCell id="0JroKW-J_Lcgd8uyPRVh-38" style="edgeStyle=orthogonalEdgeStyle;rounded=0;orthogonalLoop=1;jettySize=auto;html=1;endArrow=none;endFill=0;" edge="1" parent="1" source="e3dgtLt3XknYAATpjzhd-11" target="0JroKW-J_Lcgd8uyPRVh-2">
          <mxGeometry relative="1" as="geometry" />
        </mxCell>
        <mxCell id="0JroKW-J_Lcgd8uyPRVh-39" style="edgeStyle=orthogonalEdgeStyle;rounded=0;orthogonalLoop=1;jettySize=auto;html=1;endArrow=none;endFill=0;" edge="1" parent="1" source="e3dgtLt3XknYAATpjzhd-11">
          <mxGeometry relative="1" as="geometry">
            <mxPoint x="-390" y="200" as="targetPoint" />
            <Array as="points">
              <mxPoint x="-150" y="640" />
              <mxPoint x="-150" y="530" />
              <mxPoint x="-390" y="530" />
            </Array>
          </mxGeometry>
        </mxCell>
        <mxCell id="0JroKW-J_Lcgd8uyPRVh-42" style="edgeStyle=orthogonalEdgeStyle;rounded=0;orthogonalLoop=1;jettySize=auto;html=1;dashed=1;endArrow=open;endFill=0;" edge="1" parent="1" source="e3dgtLt3XknYAATpjzhd-11" target="e3dgtLt3XknYAATpjzhd-16">
          <mxGeometry relative="1" as="geometry">
            <Array as="points">
              <mxPoint x="100" y="610" />
              <mxPoint x="-90" y="610" />
              <mxPoint x="-90" y="350" />
              <mxPoint x="-175" y="350" />
            </Array>
          </mxGeometry>
        </mxCell>
        <mxCell id="0JroKW-J_Lcgd8uyPRVh-45" value="include" style="edgeLabel;html=1;align=center;verticalAlign=middle;resizable=0;points=[];" vertex="1" connectable="0" parent="0JroKW-J_Lcgd8uyPRVh-42">
          <mxGeometry x="0.5193" y="-1" relative="1" as="geometry">
            <mxPoint as="offset" />
          </mxGeometry>
        </mxCell>
        <mxCell id="0JroKW-J_Lcgd8uyPRVh-44" style="edgeStyle=orthogonalEdgeStyle;rounded=0;orthogonalLoop=1;jettySize=auto;html=1;entryX=0.5;entryY=1;entryDx=0;entryDy=0;dashed=1;endArrow=open;endFill=0;" edge="1" parent="1" source="e3dgtLt3XknYAATpjzhd-11" target="e3dgtLt3XknYAATpjzhd-12">
          <mxGeometry relative="1" as="geometry">
            <Array as="points">
              <mxPoint x="100" y="610" />
              <mxPoint x="-172" y="610" />
            </Array>
          </mxGeometry>
        </mxCell>
        <mxCell id="0JroKW-J_Lcgd8uyPRVh-46" value="include" style="edgeLabel;html=1;align=center;verticalAlign=middle;resizable=0;points=[];" vertex="1" connectable="0" parent="0JroKW-J_Lcgd8uyPRVh-44">
          <mxGeometry x="0.7871" y="-2" relative="1" as="geometry">
            <mxPoint as="offset" />
          </mxGeometry>
        </mxCell>
        <mxCell id="e3dgtLt3XknYAATpjzhd-11" value="View product" style="ellipse;whiteSpace=wrap;html=1;" parent="1" vertex="1">
          <mxGeometry x="40" y="620" width="120" height="40" as="geometry" />
        </mxCell>
        <mxCell id="0JroKW-J_Lcgd8uyPRVh-20" style="edgeStyle=orthogonalEdgeStyle;rounded=0;orthogonalLoop=1;jettySize=auto;html=1;dashed=1;endArrow=open;endFill=0;" edge="1" parent="1" source="e3dgtLt3XknYAATpjzhd-12" target="0JroKW-J_Lcgd8uyPRVh-6">
          <mxGeometry relative="1" as="geometry" />
        </mxCell>
        <mxCell id="0JroKW-J_Lcgd8uyPRVh-21" style="edgeStyle=orthogonalEdgeStyle;rounded=0;orthogonalLoop=1;jettySize=auto;html=1;entryX=0;entryY=0.5;entryDx=0;entryDy=0;dashed=1;endArrow=open;endFill=0;" edge="1" parent="1" source="e3dgtLt3XknYAATpjzhd-12" target="0JroKW-J_Lcgd8uyPRVh-10">
          <mxGeometry relative="1" as="geometry" />
        </mxCell>
        <mxCell id="0JroKW-J_Lcgd8uyPRVh-22" style="edgeStyle=orthogonalEdgeStyle;rounded=0;orthogonalLoop=1;jettySize=auto;html=1;entryX=0;entryY=0.5;entryDx=0;entryDy=0;dashed=1;endArrow=open;endFill=0;" edge="1" parent="1" source="e3dgtLt3XknYAATpjzhd-12" target="0JroKW-J_Lcgd8uyPRVh-11">
          <mxGeometry relative="1" as="geometry" />
        </mxCell>
        <mxCell id="0JroKW-J_Lcgd8uyPRVh-31" style="edgeStyle=orthogonalEdgeStyle;rounded=0;orthogonalLoop=1;jettySize=auto;html=1;endArrow=none;endFill=0;" edge="1" parent="1" source="e3dgtLt3XknYAATpjzhd-12" target="e3dgtLt3XknYAATpjzhd-1">
          <mxGeometry relative="1" as="geometry">
            <Array as="points">
              <mxPoint x="-380" y="410" />
              <mxPoint x="-380" y="170" />
            </Array>
          </mxGeometry>
        </mxCell>
        <mxCell id="e3dgtLt3XknYAATpjzhd-12" value="manage wishlist" style="ellipse;whiteSpace=wrap;html=1;" parent="1" vertex="1">
          <mxGeometry x="-230" y="390" width="115" height="40" as="geometry" />
        </mxCell>
        <mxCell id="0JroKW-J_Lcgd8uyPRVh-23" style="edgeStyle=orthogonalEdgeStyle;rounded=0;orthogonalLoop=1;jettySize=auto;html=1;entryX=1;entryY=0.5;entryDx=0;entryDy=0;dashed=1;endArrow=open;endFill=0;" edge="1" parent="1" source="e3dgtLt3XknYAATpjzhd-13" target="e3dgtLt3XknYAATpjzhd-11">
          <mxGeometry relative="1" as="geometry" />
        </mxCell>
        <mxCell id="0JroKW-J_Lcgd8uyPRVh-24" style="edgeStyle=orthogonalEdgeStyle;rounded=0;orthogonalLoop=1;jettySize=auto;html=1;dashed=1;endArrow=open;endFill=0;" edge="1" parent="1" source="e3dgtLt3XknYAATpjzhd-13" target="e3dgtLt3XknYAATpjzhd-15">
          <mxGeometry relative="1" as="geometry" />
        </mxCell>
        <mxCell id="0JroKW-J_Lcgd8uyPRVh-25" style="edgeStyle=orthogonalEdgeStyle;rounded=0;orthogonalLoop=1;jettySize=auto;html=1;entryX=1;entryY=0.5;entryDx=0;entryDy=0;endArrow=open;endFill=0;dashed=1;" edge="1" parent="1" source="e3dgtLt3XknYAATpjzhd-13" target="0JroKW-J_Lcgd8uyPRVh-3">
          <mxGeometry relative="1" as="geometry" />
        </mxCell>
        <mxCell id="0JroKW-J_Lcgd8uyPRVh-35" style="edgeStyle=orthogonalEdgeStyle;rounded=0;orthogonalLoop=1;jettySize=auto;html=1;endArrow=none;endFill=0;" edge="1" parent="1" source="e3dgtLt3XknYAATpjzhd-13" target="e3dgtLt3XknYAATpjzhd-2">
          <mxGeometry relative="1" as="geometry">
            <Array as="points">
              <mxPoint x="490" y="700" />
              <mxPoint x="490" y="200" />
            </Array>
          </mxGeometry>
        </mxCell>
        <mxCell id="e3dgtLt3XknYAATpjzhd-13" value="manage Products" style="ellipse;whiteSpace=wrap;html=1;" parent="1" vertex="1">
          <mxGeometry x="220" y="680" width="140" height="40" as="geometry" />
        </mxCell>
        <mxCell id="e3dgtLt3XknYAATpjzhd-15" value="edit products" style="ellipse;whiteSpace=wrap;html=1;" parent="1" vertex="1">
          <mxGeometry x="40" y="690" width="115" height="40" as="geometry" />
        </mxCell>
        <mxCell id="0JroKW-J_Lcgd8uyPRVh-17" style="edgeStyle=orthogonalEdgeStyle;rounded=0;orthogonalLoop=1;jettySize=auto;html=1;entryX=0;entryY=0.5;entryDx=0;entryDy=0;dashed=1;endArrow=open;endFill=0;" edge="1" parent="1" source="e3dgtLt3XknYAATpjzhd-16" target="0JroKW-J_Lcgd8uyPRVh-9">
          <mxGeometry relative="1" as="geometry" />
        </mxCell>
        <mxCell id="0JroKW-J_Lcgd8uyPRVh-18" style="edgeStyle=orthogonalEdgeStyle;rounded=0;orthogonalLoop=1;jettySize=auto;html=1;endArrow=open;endFill=0;dashed=1;" edge="1" parent="1" source="e3dgtLt3XknYAATpjzhd-16" target="0JroKW-J_Lcgd8uyPRVh-7">
          <mxGeometry relative="1" as="geometry" />
        </mxCell>
        <mxCell id="0JroKW-J_Lcgd8uyPRVh-19" style="edgeStyle=orthogonalEdgeStyle;rounded=0;orthogonalLoop=1;jettySize=auto;html=1;entryX=0;entryY=0.5;entryDx=0;entryDy=0;endArrow=open;endFill=0;dashed=1;" edge="1" parent="1" source="e3dgtLt3XknYAATpjzhd-16" target="0JroKW-J_Lcgd8uyPRVh-8">
          <mxGeometry relative="1" as="geometry" />
        </mxCell>
        <mxCell id="0JroKW-J_Lcgd8uyPRVh-30" style="edgeStyle=orthogonalEdgeStyle;rounded=0;orthogonalLoop=1;jettySize=auto;html=1;endArrow=none;endFill=0;" edge="1" parent="1" source="e3dgtLt3XknYAATpjzhd-16" target="e3dgtLt3XknYAATpjzhd-1">
          <mxGeometry relative="1" as="geometry">
            <Array as="points">
              <mxPoint x="-370" y="275" />
              <mxPoint x="-370" y="170" />
            </Array>
          </mxGeometry>
        </mxCell>
        <mxCell id="e3dgtLt3XknYAATpjzhd-16" value="manage cart" style="ellipse;whiteSpace=wrap;html=1;" parent="1" vertex="1">
          <mxGeometry x="-235" y="250" width="120" height="50" as="geometry" />
        </mxCell>
        <mxCell id="e3dgtLt3XknYAATpjzhd-17" value="forgot password" style="ellipse;whiteSpace=wrap;html=1;" parent="1" vertex="1">
          <mxGeometry x="95" y="140" width="90" height="40" as="geometry" />
        </mxCell>
        <mxCell id="0JroKW-J_Lcgd8uyPRVh-2" value="anonymous" style="shape=umlActor;verticalLabelPosition=bottom;verticalAlign=top;html=1;outlineConnect=0;" vertex="1" parent="1">
          <mxGeometry x="-400" y="590" width="30" height="60" as="geometry" />
        </mxCell>
        <mxCell id="0JroKW-J_Lcgd8uyPRVh-3" value="Deleted Product" style="ellipse;whiteSpace=wrap;html=1;" vertex="1" parent="1">
          <mxGeometry x="42.5" y="760" width="110" height="50" as="geometry" />
        </mxCell>
        <mxCell id="0JroKW-J_Lcgd8uyPRVh-14" style="edgeStyle=orthogonalEdgeStyle;rounded=0;orthogonalLoop=1;jettySize=auto;html=1;dashed=1;endArrow=open;endFill=0;" edge="1" parent="1" source="0JroKW-J_Lcgd8uyPRVh-4" target="e3dgtLt3XknYAATpjzhd-8">
          <mxGeometry relative="1" as="geometry" />
        </mxCell>
        <mxCell id="0JroKW-J_Lcgd8uyPRVh-15" style="edgeStyle=orthogonalEdgeStyle;rounded=0;orthogonalLoop=1;jettySize=auto;html=1;dashed=1;endArrow=open;endFill=0;" edge="1" parent="1" source="0JroKW-J_Lcgd8uyPRVh-4" target="e3dgtLt3XknYAATpjzhd-9">
          <mxGeometry relative="1" as="geometry" />
        </mxCell>
        <mxCell id="0JroKW-J_Lcgd8uyPRVh-16" style="edgeStyle=orthogonalEdgeStyle;rounded=0;orthogonalLoop=1;jettySize=auto;html=1;entryX=0;entryY=0.5;entryDx=0;entryDy=0;dashed=1;endArrow=open;endFill=0;" edge="1" parent="1" source="0JroKW-J_Lcgd8uyPRVh-4" target="e3dgtLt3XknYAATpjzhd-17">
          <mxGeometry relative="1" as="geometry" />
        </mxCell>
        <mxCell id="0JroKW-J_Lcgd8uyPRVh-28" style="edgeStyle=orthogonalEdgeStyle;rounded=0;orthogonalLoop=1;jettySize=auto;html=1;endArrow=none;endFill=0;" edge="1" parent="1" source="0JroKW-J_Lcgd8uyPRVh-4" target="e3dgtLt3XknYAATpjzhd-1">
          <mxGeometry relative="1" as="geometry">
            <Array as="points">
              <mxPoint x="-78" y="140" />
            </Array>
          </mxGeometry>
        </mxCell>
        <mxCell id="0JroKW-J_Lcgd8uyPRVh-4" value="manager user" style="ellipse;whiteSpace=wrap;html=1;" vertex="1" parent="1">
          <mxGeometry x="-130" y="70" width="105" height="50" as="geometry" />
        </mxCell>
        <mxCell id="0JroKW-J_Lcgd8uyPRVh-36" style="edgeStyle=orthogonalEdgeStyle;rounded=0;orthogonalLoop=1;jettySize=auto;html=1;endArrow=none;endFill=0;" edge="1" parent="1" source="0JroKW-J_Lcgd8uyPRVh-5" target="e3dgtLt3XknYAATpjzhd-1">
          <mxGeometry relative="1" as="geometry">
            <Array as="points">
              <mxPoint x="-40" y="575" />
              <mxPoint x="-40" y="500" />
              <mxPoint x="-395" y="500" />
            </Array>
          </mxGeometry>
        </mxCell>
        <mxCell id="0JroKW-J_Lcgd8uyPRVh-41" style="edgeStyle=orthogonalEdgeStyle;rounded=0;orthogonalLoop=1;jettySize=auto;html=1;endArrow=none;endFill=0;" edge="1" parent="1" source="0JroKW-J_Lcgd8uyPRVh-5">
          <mxGeometry relative="1" as="geometry">
            <mxPoint x="800" y="200" as="targetPoint" />
            <Array as="points">
              <mxPoint x="470" y="570" />
              <mxPoint x="470" y="200" />
            </Array>
          </mxGeometry>
        </mxCell>
        <mxCell id="0JroKW-J_Lcgd8uyPRVh-5" value="maker order" style="ellipse;whiteSpace=wrap;html=1;" vertex="1" parent="1">
          <mxGeometry x="40" y="550" width="120" height="50" as="geometry" />
        </mxCell>
        <mxCell id="0JroKW-J_Lcgd8uyPRVh-6" value="Delete products in wishlist" style="ellipse;whiteSpace=wrap;html=1;" vertex="1" parent="1">
          <mxGeometry x="75" y="360" width="105" height="50" as="geometry" />
        </mxCell>
        <mxCell id="0JroKW-J_Lcgd8uyPRVh-7" value="Edit product in cart" style="ellipse;whiteSpace=wrap;html=1;" vertex="1" parent="1">
          <mxGeometry x="87.5" y="250" width="90" height="50" as="geometry" />
        </mxCell>
        <mxCell id="0JroKW-J_Lcgd8uyPRVh-8" value="add product into cart" style="ellipse;whiteSpace=wrap;html=1;" vertex="1" parent="1">
          <mxGeometry x="80" y="310" width="100" height="40" as="geometry" />
        </mxCell>
        <mxCell id="0JroKW-J_Lcgd8uyPRVh-9" value="Delete products in cart" style="ellipse;whiteSpace=wrap;html=1;" vertex="1" parent="1">
          <mxGeometry x="87.5" y="200" width="100" height="40" as="geometry" />
        </mxCell>
        <mxCell id="0JroKW-J_Lcgd8uyPRVh-10" value="Edit product in wishlist" style="ellipse;whiteSpace=wrap;html=1;" vertex="1" parent="1">
          <mxGeometry x="75" y="420" width="110" height="40" as="geometry" />
        </mxCell>
        <mxCell id="0JroKW-J_Lcgd8uyPRVh-11" value="add product into wishlist" style="ellipse;whiteSpace=wrap;html=1;" vertex="1" parent="1">
          <mxGeometry x="80" y="490" width="100" height="40" as="geometry" />
        </mxCell>
        <mxCell id="0JroKW-J_Lcgd8uyPRVh-121" value="" style="group" vertex="1" connectable="0" parent="1">
          <mxGeometry x="-1640" y="130" width="980" height="550" as="geometry" />
        </mxCell>
        <mxCell id="0JroKW-J_Lcgd8uyPRVh-47" value="product" style="swimlane;fontStyle=0;childLayout=stackLayout;horizontal=1;startSize=30;horizontalStack=0;resizeParent=1;resizeParentMax=0;resizeLast=0;collapsible=1;marginBottom=0;whiteSpace=wrap;html=1;" vertex="1" parent="0JroKW-J_Lcgd8uyPRVh-121">
          <mxGeometry x="580" y="270" width="140" height="270" as="geometry" />
        </mxCell>
        <mxCell id="0JroKW-J_Lcgd8uyPRVh-65" value="ID (PK)" style="text;strokeColor=none;fillColor=none;align=left;verticalAlign=middle;spacingLeft=4;spacingRight=4;overflow=hidden;points=[[0,0.5],[1,0.5]];portConstraint=eastwest;rotatable=0;whiteSpace=wrap;html=1;" vertex="1" parent="0JroKW-J_Lcgd8uyPRVh-47">
          <mxGeometry y="30" width="140" height="30" as="geometry" />
        </mxCell>
        <mxCell id="0JroKW-J_Lcgd8uyPRVh-48" value="name" style="text;strokeColor=none;fillColor=none;align=left;verticalAlign=middle;spacingLeft=4;spacingRight=4;overflow=hidden;points=[[0,0.5],[1,0.5]];portConstraint=eastwest;rotatable=0;whiteSpace=wrap;html=1;" vertex="1" parent="0JroKW-J_Lcgd8uyPRVh-47">
          <mxGeometry y="60" width="140" height="30" as="geometry" />
        </mxCell>
        <mxCell id="0JroKW-J_Lcgd8uyPRVh-49" value="price" style="text;strokeColor=none;fillColor=none;align=left;verticalAlign=middle;spacingLeft=4;spacingRight=4;overflow=hidden;points=[[0,0.5],[1,0.5]];portConstraint=eastwest;rotatable=0;whiteSpace=wrap;html=1;" vertex="1" parent="0JroKW-J_Lcgd8uyPRVh-47">
          <mxGeometry y="90" width="140" height="30" as="geometry" />
        </mxCell>
        <mxCell id="0JroKW-J_Lcgd8uyPRVh-68" value="category (FK)" style="text;strokeColor=none;fillColor=none;align=left;verticalAlign=middle;spacingLeft=4;spacingRight=4;overflow=hidden;points=[[0,0.5],[1,0.5]];portConstraint=eastwest;rotatable=0;whiteSpace=wrap;html=1;" vertex="1" parent="0JroKW-J_Lcgd8uyPRVh-47">
          <mxGeometry y="120" width="140" height="30" as="geometry" />
        </mxCell>
        <mxCell id="0JroKW-J_Lcgd8uyPRVh-69" value="brand (FK)" style="text;strokeColor=none;fillColor=none;align=left;verticalAlign=middle;spacingLeft=4;spacingRight=4;overflow=hidden;points=[[0,0.5],[1,0.5]];portConstraint=eastwest;rotatable=0;whiteSpace=wrap;html=1;" vertex="1" parent="0JroKW-J_Lcgd8uyPRVh-47">
          <mxGeometry y="150" width="140" height="30" as="geometry" />
        </mxCell>
        <mxCell id="0JroKW-J_Lcgd8uyPRVh-50" value="stock:" style="text;strokeColor=none;fillColor=none;align=left;verticalAlign=middle;spacingLeft=4;spacingRight=4;overflow=hidden;points=[[0,0.5],[1,0.5]];portConstraint=eastwest;rotatable=0;whiteSpace=wrap;html=1;" vertex="1" parent="0JroKW-J_Lcgd8uyPRVh-47">
          <mxGeometry y="180" width="140" height="30" as="geometry" />
        </mxCell>
        <mxCell id="0JroKW-J_Lcgd8uyPRVh-66" value="img" style="text;strokeColor=none;fillColor=none;align=left;verticalAlign=middle;spacingLeft=4;spacingRight=4;overflow=hidden;points=[[0,0.5],[1,0.5]];portConstraint=eastwest;rotatable=0;whiteSpace=wrap;html=1;" vertex="1" parent="0JroKW-J_Lcgd8uyPRVh-47">
          <mxGeometry y="210" width="140" height="30" as="geometry" />
        </mxCell>
        <mxCell id="0JroKW-J_Lcgd8uyPRVh-90" value="ID_user" style="text;strokeColor=none;fillColor=none;align=left;verticalAlign=middle;spacingLeft=4;spacingRight=4;overflow=hidden;points=[[0,0.5],[1,0.5]];portConstraint=eastwest;rotatable=0;whiteSpace=wrap;html=1;" vertex="1" parent="0JroKW-J_Lcgd8uyPRVh-47">
          <mxGeometry y="240" width="140" height="30" as="geometry" />
        </mxCell>
        <mxCell id="0JroKW-J_Lcgd8uyPRVh-112" style="edgeStyle=orthogonalEdgeStyle;rounded=0;orthogonalLoop=1;jettySize=auto;html=1;endArrow=none;endFill=0;" edge="1" parent="0JroKW-J_Lcgd8uyPRVh-121" source="0JroKW-J_Lcgd8uyPRVh-60" target="0JroKW-J_Lcgd8uyPRVh-49">
          <mxGeometry relative="1" as="geometry" />
        </mxCell>
        <mxCell id="0JroKW-J_Lcgd8uyPRVh-126" value="1" style="edgeLabel;html=1;align=center;verticalAlign=middle;resizable=0;points=[];" vertex="1" connectable="0" parent="0JroKW-J_Lcgd8uyPRVh-112">
          <mxGeometry x="-0.77" y="3" relative="1" as="geometry">
            <mxPoint as="offset" />
          </mxGeometry>
        </mxCell>
        <mxCell id="0JroKW-J_Lcgd8uyPRVh-127" value="1" style="edgeLabel;html=1;align=center;verticalAlign=middle;resizable=0;points=[];" vertex="1" connectable="0" parent="0JroKW-J_Lcgd8uyPRVh-112">
          <mxGeometry x="0.76" y="3" relative="1" as="geometry">
            <mxPoint x="-1" as="offset" />
          </mxGeometry>
        </mxCell>
        <mxCell id="0JroKW-J_Lcgd8uyPRVh-60" value="Brand" style="swimlane;fontStyle=0;childLayout=stackLayout;horizontal=1;startSize=30;horizontalStack=0;resizeParent=1;resizeParentMax=0;resizeLast=0;collapsible=1;marginBottom=0;whiteSpace=wrap;html=1;" vertex="1" parent="0JroKW-J_Lcgd8uyPRVh-121">
          <mxGeometry x="190" y="345" width="190" height="60" as="geometry">
            <mxRectangle x="-1460" y="750" width="60" height="30" as="alternateBounds" />
          </mxGeometry>
        </mxCell>
        <mxCell id="0JroKW-J_Lcgd8uyPRVh-61" value="Name:(PK)" style="text;strokeColor=none;fillColor=none;align=left;verticalAlign=middle;spacingLeft=4;spacingRight=4;overflow=hidden;points=[[0,0.5],[1,0.5]];portConstraint=eastwest;rotatable=0;whiteSpace=wrap;html=1;" vertex="1" parent="0JroKW-J_Lcgd8uyPRVh-60">
          <mxGeometry y="30" width="190" height="30" as="geometry" />
        </mxCell>
        <mxCell id="0JroKW-J_Lcgd8uyPRVh-70" value="Category" style="swimlane;fontStyle=0;childLayout=stackLayout;horizontal=1;startSize=30;horizontalStack=0;resizeParent=1;resizeParentMax=0;resizeLast=0;collapsible=1;marginBottom=0;whiteSpace=wrap;html=1;" vertex="1" parent="0JroKW-J_Lcgd8uyPRVh-121">
          <mxGeometry x="210" y="475" width="190" height="60" as="geometry">
            <mxRectangle x="-1460" y="750" width="60" height="30" as="alternateBounds" />
          </mxGeometry>
        </mxCell>
        <mxCell id="0JroKW-J_Lcgd8uyPRVh-71" value="Name:(PK)" style="text;strokeColor=none;fillColor=none;align=left;verticalAlign=middle;spacingLeft=4;spacingRight=4;overflow=hidden;points=[[0,0.5],[1,0.5]];portConstraint=eastwest;rotatable=0;whiteSpace=wrap;html=1;" vertex="1" parent="0JroKW-J_Lcgd8uyPRVh-70">
          <mxGeometry y="30" width="190" height="30" as="geometry" />
        </mxCell>
        <mxCell id="0JroKW-J_Lcgd8uyPRVh-73" value="User" style="swimlane;fontStyle=0;childLayout=stackLayout;horizontal=1;startSize=30;horizontalStack=0;resizeParent=1;resizeParentMax=0;resizeLast=0;collapsible=1;marginBottom=0;whiteSpace=wrap;html=1;" vertex="1" parent="0JroKW-J_Lcgd8uyPRVh-121">
          <mxGeometry x="840" y="250" width="140" height="150" as="geometry" />
        </mxCell>
        <mxCell id="0JroKW-J_Lcgd8uyPRVh-74" value="ID (PK)" style="text;strokeColor=none;fillColor=none;align=left;verticalAlign=middle;spacingLeft=4;spacingRight=4;overflow=hidden;points=[[0,0.5],[1,0.5]];portConstraint=eastwest;rotatable=0;whiteSpace=wrap;html=1;" vertex="1" parent="0JroKW-J_Lcgd8uyPRVh-73">
          <mxGeometry y="30" width="140" height="30" as="geometry" />
        </mxCell>
        <mxCell id="0JroKW-J_Lcgd8uyPRVh-75" value="email" style="text;strokeColor=none;fillColor=none;align=left;verticalAlign=middle;spacingLeft=4;spacingRight=4;overflow=hidden;points=[[0,0.5],[1,0.5]];portConstraint=eastwest;rotatable=0;whiteSpace=wrap;html=1;" vertex="1" parent="0JroKW-J_Lcgd8uyPRVh-73">
          <mxGeometry y="60" width="140" height="30" as="geometry" />
        </mxCell>
        <mxCell id="0JroKW-J_Lcgd8uyPRVh-76" value="username" style="text;strokeColor=none;fillColor=none;align=left;verticalAlign=middle;spacingLeft=4;spacingRight=4;overflow=hidden;points=[[0,0.5],[1,0.5]];portConstraint=eastwest;rotatable=0;whiteSpace=wrap;html=1;" vertex="1" parent="0JroKW-J_Lcgd8uyPRVh-73">
          <mxGeometry y="90" width="140" height="30" as="geometry" />
        </mxCell>
        <mxCell id="0JroKW-J_Lcgd8uyPRVh-77" value="password" style="text;strokeColor=none;fillColor=none;align=left;verticalAlign=middle;spacingLeft=4;spacingRight=4;overflow=hidden;points=[[0,0.5],[1,0.5]];portConstraint=eastwest;rotatable=0;whiteSpace=wrap;html=1;" vertex="1" parent="0JroKW-J_Lcgd8uyPRVh-73">
          <mxGeometry y="120" width="140" height="30" as="geometry" />
        </mxCell>
        <mxCell id="0JroKW-J_Lcgd8uyPRVh-81" value="review" style="swimlane;fontStyle=0;childLayout=stackLayout;horizontal=1;startSize=20;horizontalStack=0;resizeParent=1;resizeParentMax=0;resizeLast=0;collapsible=1;marginBottom=0;whiteSpace=wrap;html=1;" vertex="1" parent="0JroKW-J_Lcgd8uyPRVh-121">
          <mxGeometry x="510" y="60" width="140" height="140" as="geometry" />
        </mxCell>
        <mxCell id="0JroKW-J_Lcgd8uyPRVh-82" value="ID (PK)" style="text;strokeColor=none;fillColor=none;align=left;verticalAlign=middle;spacingLeft=4;spacingRight=4;overflow=hidden;points=[[0,0.5],[1,0.5]];portConstraint=eastwest;rotatable=0;whiteSpace=wrap;html=1;" vertex="1" parent="0JroKW-J_Lcgd8uyPRVh-81">
          <mxGeometry y="20" width="140" height="30" as="geometry" />
        </mxCell>
        <mxCell id="0JroKW-J_Lcgd8uyPRVh-85" value="product_id" style="text;strokeColor=none;fillColor=none;align=left;verticalAlign=middle;spacingLeft=4;spacingRight=4;overflow=hidden;points=[[0,0.5],[1,0.5]];portConstraint=eastwest;rotatable=0;whiteSpace=wrap;html=1;" vertex="1" parent="0JroKW-J_Lcgd8uyPRVh-81">
          <mxGeometry y="50" width="140" height="30" as="geometry" />
        </mxCell>
        <mxCell id="0JroKW-J_Lcgd8uyPRVh-83" value="text:" style="text;strokeColor=none;fillColor=none;align=left;verticalAlign=middle;spacingLeft=4;spacingRight=4;overflow=hidden;points=[[0,0.5],[1,0.5]];portConstraint=eastwest;rotatable=0;whiteSpace=wrap;html=1;" vertex="1" parent="0JroKW-J_Lcgd8uyPRVh-81">
          <mxGeometry y="80" width="140" height="30" as="geometry" />
        </mxCell>
        <mxCell id="0JroKW-J_Lcgd8uyPRVh-84" value="rating" style="text;strokeColor=none;fillColor=none;align=left;verticalAlign=middle;spacingLeft=4;spacingRight=4;overflow=hidden;points=[[0,0.5],[1,0.5]];portConstraint=eastwest;rotatable=0;whiteSpace=wrap;html=1;" vertex="1" parent="0JroKW-J_Lcgd8uyPRVh-81">
          <mxGeometry y="110" width="140" height="30" as="geometry" />
        </mxCell>
        <mxCell id="0JroKW-J_Lcgd8uyPRVh-86" value="review and user" style="swimlane;fontStyle=0;childLayout=stackLayout;horizontal=1;startSize=30;horizontalStack=0;resizeParent=1;resizeParentMax=0;resizeLast=0;collapsible=1;marginBottom=0;whiteSpace=wrap;html=1;" vertex="1" parent="0JroKW-J_Lcgd8uyPRVh-121">
          <mxGeometry x="750" y="100" width="140" height="90" as="geometry" />
        </mxCell>
        <mxCell id="0JroKW-J_Lcgd8uyPRVh-87" value="ID_user" style="text;strokeColor=none;fillColor=none;align=left;verticalAlign=middle;spacingLeft=4;spacingRight=4;overflow=hidden;points=[[0,0.5],[1,0.5]];portConstraint=eastwest;rotatable=0;whiteSpace=wrap;html=1;" vertex="1" parent="0JroKW-J_Lcgd8uyPRVh-86">
          <mxGeometry y="30" width="140" height="30" as="geometry" />
        </mxCell>
        <mxCell id="0JroKW-J_Lcgd8uyPRVh-88" value="ID_review" style="text;strokeColor=none;fillColor=none;align=left;verticalAlign=middle;spacingLeft=4;spacingRight=4;overflow=hidden;points=[[0,0.5],[1,0.5]];portConstraint=eastwest;rotatable=0;whiteSpace=wrap;html=1;" vertex="1" parent="0JroKW-J_Lcgd8uyPRVh-86">
          <mxGeometry y="60" width="140" height="30" as="geometry" />
        </mxCell>
        <mxCell id="0JroKW-J_Lcgd8uyPRVh-119" style="edgeStyle=orthogonalEdgeStyle;rounded=0;orthogonalLoop=1;jettySize=auto;html=1;entryX=0.321;entryY=0.967;entryDx=0;entryDy=0;entryPerimeter=0;endArrow=none;endFill=0;" edge="1" parent="0JroKW-J_Lcgd8uyPRVh-121" source="0JroKW-J_Lcgd8uyPRVh-91" target="0JroKW-J_Lcgd8uyPRVh-77">
          <mxGeometry relative="1" as="geometry" />
        </mxCell>
        <mxCell id="0JroKW-J_Lcgd8uyPRVh-132" value="1" style="edgeLabel;html=1;align=center;verticalAlign=middle;resizable=0;points=[];" vertex="1" connectable="0" parent="0JroKW-J_Lcgd8uyPRVh-119">
          <mxGeometry x="0.6058" y="-2" relative="1" as="geometry">
            <mxPoint as="offset" />
          </mxGeometry>
        </mxCell>
        <mxCell id="0JroKW-J_Lcgd8uyPRVh-133" value="*" style="edgeLabel;html=1;align=center;verticalAlign=middle;resizable=0;points=[];" vertex="1" connectable="0" parent="0JroKW-J_Lcgd8uyPRVh-119">
          <mxGeometry x="-0.6965" y="-1" relative="1" as="geometry">
            <mxPoint as="offset" />
          </mxGeometry>
        </mxCell>
        <mxCell id="0JroKW-J_Lcgd8uyPRVh-91" value="wishlist" style="swimlane;fontStyle=0;childLayout=stackLayout;horizontal=1;startSize=30;horizontalStack=0;resizeParent=1;resizeParentMax=0;resizeLast=0;collapsible=1;marginBottom=0;whiteSpace=wrap;html=1;" vertex="1" parent="0JroKW-J_Lcgd8uyPRVh-121">
          <mxGeometry x="810" y="460" width="140" height="90" as="geometry" />
        </mxCell>
        <mxCell id="0JroKW-J_Lcgd8uyPRVh-93" value="product_id" style="text;strokeColor=none;fillColor=none;align=left;verticalAlign=middle;spacingLeft=4;spacingRight=4;overflow=hidden;points=[[0,0.5],[1,0.5]];portConstraint=eastwest;rotatable=0;whiteSpace=wrap;html=1;" vertex="1" parent="0JroKW-J_Lcgd8uyPRVh-91">
          <mxGeometry y="30" width="140" height="30" as="geometry" />
        </mxCell>
        <mxCell id="0JroKW-J_Lcgd8uyPRVh-94" value="ID_user" style="text;strokeColor=none;fillColor=none;align=left;verticalAlign=middle;spacingLeft=4;spacingRight=4;overflow=hidden;points=[[0,0.5],[1,0.5]];portConstraint=eastwest;rotatable=0;whiteSpace=wrap;html=1;" vertex="1" parent="0JroKW-J_Lcgd8uyPRVh-91">
          <mxGeometry y="60" width="140" height="30" as="geometry" />
        </mxCell>
        <mxCell id="0JroKW-J_Lcgd8uyPRVh-95" value="order" style="swimlane;fontStyle=0;childLayout=stackLayout;horizontal=1;startSize=30;horizontalStack=0;resizeParent=1;resizeParentMax=0;resizeLast=0;collapsible=1;marginBottom=0;whiteSpace=wrap;html=1;" vertex="1" parent="0JroKW-J_Lcgd8uyPRVh-121">
          <mxGeometry y="120" width="140" height="390" as="geometry" />
        </mxCell>
        <mxCell id="0JroKW-J_Lcgd8uyPRVh-96" value="ID (PK)" style="text;strokeColor=none;fillColor=none;align=left;verticalAlign=middle;spacingLeft=4;spacingRight=4;overflow=hidden;points=[[0,0.5],[1,0.5]];portConstraint=eastwest;rotatable=0;whiteSpace=wrap;html=1;" vertex="1" parent="0JroKW-J_Lcgd8uyPRVh-95">
          <mxGeometry y="30" width="140" height="30" as="geometry" />
        </mxCell>
        <mxCell id="0JroKW-J_Lcgd8uyPRVh-97" value="ID_user" style="text;strokeColor=none;fillColor=none;align=left;verticalAlign=middle;spacingLeft=4;spacingRight=4;overflow=hidden;points=[[0,0.5],[1,0.5]];portConstraint=eastwest;rotatable=0;whiteSpace=wrap;html=1;" vertex="1" parent="0JroKW-J_Lcgd8uyPRVh-95">
          <mxGeometry y="60" width="140" height="30" as="geometry" />
        </mxCell>
        <mxCell id="0JroKW-J_Lcgd8uyPRVh-98" value="first name" style="text;strokeColor=none;fillColor=none;align=left;verticalAlign=middle;spacingLeft=4;spacingRight=4;overflow=hidden;points=[[0,0.5],[1,0.5]];portConstraint=eastwest;rotatable=0;whiteSpace=wrap;html=1;" vertex="1" parent="0JroKW-J_Lcgd8uyPRVh-95">
          <mxGeometry y="90" width="140" height="30" as="geometry" />
        </mxCell>
        <mxCell id="0JroKW-J_Lcgd8uyPRVh-99" value="last Name" style="text;strokeColor=none;fillColor=none;align=left;verticalAlign=middle;spacingLeft=4;spacingRight=4;overflow=hidden;points=[[0,0.5],[1,0.5]];portConstraint=eastwest;rotatable=0;whiteSpace=wrap;html=1;" vertex="1" parent="0JroKW-J_Lcgd8uyPRVh-95">
          <mxGeometry y="120" width="140" height="30" as="geometry" />
        </mxCell>
        <mxCell id="0JroKW-J_Lcgd8uyPRVh-100" value="email" style="text;strokeColor=none;fillColor=none;align=left;verticalAlign=middle;spacingLeft=4;spacingRight=4;overflow=hidden;points=[[0,0.5],[1,0.5]];portConstraint=eastwest;rotatable=0;whiteSpace=wrap;html=1;" vertex="1" parent="0JroKW-J_Lcgd8uyPRVh-95">
          <mxGeometry y="150" width="140" height="30" as="geometry" />
        </mxCell>
        <mxCell id="0JroKW-J_Lcgd8uyPRVh-101" value="phone" style="text;strokeColor=none;fillColor=none;align=left;verticalAlign=middle;spacingLeft=4;spacingRight=4;overflow=hidden;points=[[0,0.5],[1,0.5]];portConstraint=eastwest;rotatable=0;whiteSpace=wrap;html=1;" vertex="1" parent="0JroKW-J_Lcgd8uyPRVh-95">
          <mxGeometry y="180" width="140" height="30" as="geometry" />
        </mxCell>
        <mxCell id="0JroKW-J_Lcgd8uyPRVh-102" value="address" style="text;strokeColor=none;fillColor=none;align=left;verticalAlign=middle;spacingLeft=4;spacingRight=4;overflow=hidden;points=[[0,0.5],[1,0.5]];portConstraint=eastwest;rotatable=0;whiteSpace=wrap;html=1;" vertex="1" parent="0JroKW-J_Lcgd8uyPRVh-95">
          <mxGeometry y="210" width="140" height="30" as="geometry" />
        </mxCell>
        <mxCell id="0JroKW-J_Lcgd8uyPRVh-103" value="city" style="text;strokeColor=none;fillColor=none;align=left;verticalAlign=middle;spacingLeft=4;spacingRight=4;overflow=hidden;points=[[0,0.5],[1,0.5]];portConstraint=eastwest;rotatable=0;whiteSpace=wrap;html=1;" vertex="1" parent="0JroKW-J_Lcgd8uyPRVh-95">
          <mxGeometry y="240" width="140" height="30" as="geometry" />
        </mxCell>
        <mxCell id="0JroKW-J_Lcgd8uyPRVh-104" value="district" style="text;strokeColor=none;fillColor=none;align=left;verticalAlign=middle;spacingLeft=4;spacingRight=4;overflow=hidden;points=[[0,0.5],[1,0.5]];portConstraint=eastwest;rotatable=0;whiteSpace=wrap;html=1;" vertex="1" parent="0JroKW-J_Lcgd8uyPRVh-95">
          <mxGeometry y="270" width="140" height="30" as="geometry" />
        </mxCell>
        <mxCell id="0JroKW-J_Lcgd8uyPRVh-105" value="ward" style="text;strokeColor=none;fillColor=none;align=left;verticalAlign=middle;spacingLeft=4;spacingRight=4;overflow=hidden;points=[[0,0.5],[1,0.5]];portConstraint=eastwest;rotatable=0;whiteSpace=wrap;html=1;" vertex="1" parent="0JroKW-J_Lcgd8uyPRVh-95">
          <mxGeometry y="300" width="140" height="30" as="geometry" />
        </mxCell>
        <mxCell id="0JroKW-J_Lcgd8uyPRVh-106" value="paymentType" style="text;strokeColor=none;fillColor=none;align=left;verticalAlign=middle;spacingLeft=4;spacingRight=4;overflow=hidden;points=[[0,0.5],[1,0.5]];portConstraint=eastwest;rotatable=0;whiteSpace=wrap;html=1;" vertex="1" parent="0JroKW-J_Lcgd8uyPRVh-95">
          <mxGeometry y="330" width="140" height="30" as="geometry" />
        </mxCell>
        <mxCell id="0JroKW-J_Lcgd8uyPRVh-107" value="total" style="text;strokeColor=none;fillColor=none;align=left;verticalAlign=middle;spacingLeft=4;spacingRight=4;overflow=hidden;points=[[0,0.5],[1,0.5]];portConstraint=eastwest;rotatable=0;whiteSpace=wrap;html=1;" vertex="1" parent="0JroKW-J_Lcgd8uyPRVh-95">
          <mxGeometry y="360" width="140" height="30" as="geometry" />
        </mxCell>
        <mxCell id="0JroKW-J_Lcgd8uyPRVh-108" value="order and product" style="swimlane;fontStyle=0;childLayout=stackLayout;horizontal=1;startSize=30;horizontalStack=0;resizeParent=1;resizeParentMax=0;resizeLast=0;collapsible=1;marginBottom=0;whiteSpace=wrap;html=1;" vertex="1" parent="0JroKW-J_Lcgd8uyPRVh-121">
          <mxGeometry x="250" y="140" width="140" height="90" as="geometry" />
        </mxCell>
        <mxCell id="0JroKW-J_Lcgd8uyPRVh-109" value="product_id" style="text;strokeColor=none;fillColor=none;align=left;verticalAlign=middle;spacingLeft=4;spacingRight=4;overflow=hidden;points=[[0,0.5],[1,0.5]];portConstraint=eastwest;rotatable=0;whiteSpace=wrap;html=1;" vertex="1" parent="0JroKW-J_Lcgd8uyPRVh-108">
          <mxGeometry y="30" width="140" height="30" as="geometry" />
        </mxCell>
        <mxCell id="0JroKW-J_Lcgd8uyPRVh-110" value="order_id" style="text;strokeColor=none;fillColor=none;align=left;verticalAlign=middle;spacingLeft=4;spacingRight=4;overflow=hidden;points=[[0,0.5],[1,0.5]];portConstraint=eastwest;rotatable=0;whiteSpace=wrap;html=1;" vertex="1" parent="0JroKW-J_Lcgd8uyPRVh-108">
          <mxGeometry y="60" width="140" height="30" as="geometry" />
        </mxCell>
        <mxCell id="0JroKW-J_Lcgd8uyPRVh-113" style="edgeStyle=orthogonalEdgeStyle;rounded=0;orthogonalLoop=1;jettySize=auto;html=1;entryX=0;entryY=0.933;entryDx=0;entryDy=0;entryPerimeter=0;endArrow=none;endFill=0;" edge="1" parent="0JroKW-J_Lcgd8uyPRVh-121" source="0JroKW-J_Lcgd8uyPRVh-71" target="0JroKW-J_Lcgd8uyPRVh-69">
          <mxGeometry relative="1" as="geometry" />
        </mxCell>
        <mxCell id="0JroKW-J_Lcgd8uyPRVh-128" value="1" style="edgeLabel;html=1;align=center;verticalAlign=middle;resizable=0;points=[];" vertex="1" connectable="0" parent="0JroKW-J_Lcgd8uyPRVh-113">
          <mxGeometry x="0.8968" y="3" relative="1" as="geometry">
            <mxPoint as="offset" />
          </mxGeometry>
        </mxCell>
        <mxCell id="0JroKW-J_Lcgd8uyPRVh-129" value="1" style="edgeLabel;html=1;align=center;verticalAlign=middle;resizable=0;points=[];" vertex="1" connectable="0" parent="0JroKW-J_Lcgd8uyPRVh-113">
          <mxGeometry x="-0.8571" y="-1" relative="1" as="geometry">
            <mxPoint as="offset" />
          </mxGeometry>
        </mxCell>
        <mxCell id="0JroKW-J_Lcgd8uyPRVh-114" style="edgeStyle=orthogonalEdgeStyle;rounded=0;orthogonalLoop=1;jettySize=auto;html=1;entryX=0;entryY=-0.033;entryDx=0;entryDy=0;entryPerimeter=0;endArrow=none;endFill=0;" edge="1" parent="0JroKW-J_Lcgd8uyPRVh-121" source="0JroKW-J_Lcgd8uyPRVh-98" target="0JroKW-J_Lcgd8uyPRVh-110">
          <mxGeometry relative="1" as="geometry" />
        </mxCell>
        <mxCell id="0JroKW-J_Lcgd8uyPRVh-122" value="1" style="edgeLabel;html=1;align=center;verticalAlign=middle;resizable=0;points=[];" vertex="1" connectable="0" parent="0JroKW-J_Lcgd8uyPRVh-114">
          <mxGeometry x="-0.8506" relative="1" as="geometry">
            <mxPoint as="offset" />
          </mxGeometry>
        </mxCell>
        <mxCell id="0JroKW-J_Lcgd8uyPRVh-115" style="edgeStyle=orthogonalEdgeStyle;rounded=0;orthogonalLoop=1;jettySize=auto;html=1;entryX=0.021;entryY=0.967;entryDx=0;entryDy=0;entryPerimeter=0;endArrow=none;endFill=0;" edge="1" parent="0JroKW-J_Lcgd8uyPRVh-121" source="0JroKW-J_Lcgd8uyPRVh-109" target="0JroKW-J_Lcgd8uyPRVh-65">
          <mxGeometry relative="1" as="geometry">
            <Array as="points">
              <mxPoint x="485" y="185" />
              <mxPoint x="485" y="329" />
            </Array>
          </mxGeometry>
        </mxCell>
        <mxCell id="0JroKW-J_Lcgd8uyPRVh-123" value="1" style="edgeLabel;html=1;align=center;verticalAlign=middle;resizable=0;points=[];" vertex="1" connectable="0" parent="0JroKW-J_Lcgd8uyPRVh-115">
          <mxGeometry x="0.7154" y="2" relative="1" as="geometry">
            <mxPoint as="offset" />
          </mxGeometry>
        </mxCell>
        <mxCell id="0JroKW-J_Lcgd8uyPRVh-124" value="....*" style="edgeLabel;html=1;align=center;verticalAlign=middle;resizable=0;points=[];" vertex="1" connectable="0" parent="0JroKW-J_Lcgd8uyPRVh-115">
          <mxGeometry x="-0.8932" y="3" relative="1" as="geometry">
            <mxPoint as="offset" />
          </mxGeometry>
        </mxCell>
        <mxCell id="0JroKW-J_Lcgd8uyPRVh-116" style="edgeStyle=orthogonalEdgeStyle;rounded=0;orthogonalLoop=1;jettySize=auto;html=1;entryX=0;entryY=0.5;entryDx=0;entryDy=0;endArrow=none;endFill=0;" edge="1" parent="0JroKW-J_Lcgd8uyPRVh-121" source="0JroKW-J_Lcgd8uyPRVh-81" target="0JroKW-J_Lcgd8uyPRVh-87">
          <mxGeometry relative="1" as="geometry" />
        </mxCell>
        <mxCell id="0JroKW-J_Lcgd8uyPRVh-134" value="1" style="edgeLabel;html=1;align=center;verticalAlign=middle;resizable=0;points=[];" vertex="1" connectable="0" parent="0JroKW-J_Lcgd8uyPRVh-116">
          <mxGeometry x="-0.7739" y="2" relative="1" as="geometry">
            <mxPoint as="offset" />
          </mxGeometry>
        </mxCell>
        <mxCell id="0JroKW-J_Lcgd8uyPRVh-135" value="*" style="edgeLabel;html=1;align=center;verticalAlign=middle;resizable=0;points=[];" vertex="1" connectable="0" parent="0JroKW-J_Lcgd8uyPRVh-116">
          <mxGeometry x="0.7043" y="1" relative="1" as="geometry">
            <mxPoint as="offset" />
          </mxGeometry>
        </mxCell>
        <mxCell id="0JroKW-J_Lcgd8uyPRVh-117" style="edgeStyle=orthogonalEdgeStyle;rounded=0;orthogonalLoop=1;jettySize=auto;html=1;endArrow=none;endFill=0;" edge="1" parent="0JroKW-J_Lcgd8uyPRVh-121" source="0JroKW-J_Lcgd8uyPRVh-87" target="0JroKW-J_Lcgd8uyPRVh-73">
          <mxGeometry relative="1" as="geometry" />
        </mxCell>
        <mxCell id="0JroKW-J_Lcgd8uyPRVh-136" value="*" style="edgeLabel;html=1;align=center;verticalAlign=middle;resizable=0;points=[];" vertex="1" connectable="0" parent="0JroKW-J_Lcgd8uyPRVh-117">
          <mxGeometry x="-0.728" y="1" relative="1" as="geometry">
            <mxPoint as="offset" />
          </mxGeometry>
        </mxCell>
        <mxCell id="0JroKW-J_Lcgd8uyPRVh-137" value="1" style="edgeLabel;html=1;align=center;verticalAlign=middle;resizable=0;points=[];" vertex="1" connectable="0" parent="0JroKW-J_Lcgd8uyPRVh-117">
          <mxGeometry x="0.792" y="2" relative="1" as="geometry">
            <mxPoint as="offset" />
          </mxGeometry>
        </mxCell>
        <mxCell id="0JroKW-J_Lcgd8uyPRVh-118" style="edgeStyle=orthogonalEdgeStyle;rounded=0;orthogonalLoop=1;jettySize=auto;html=1;entryX=0;entryY=0.5;entryDx=0;entryDy=0;endArrow=none;endFill=0;" edge="1" parent="0JroKW-J_Lcgd8uyPRVh-121" source="0JroKW-J_Lcgd8uyPRVh-49" target="0JroKW-J_Lcgd8uyPRVh-93">
          <mxGeometry relative="1" as="geometry" />
        </mxCell>
        <mxCell id="0JroKW-J_Lcgd8uyPRVh-130" value="1" style="edgeLabel;html=1;align=center;verticalAlign=middle;resizable=0;points=[];" vertex="1" connectable="0" parent="0JroKW-J_Lcgd8uyPRVh-118">
          <mxGeometry x="-0.7909" y="-1" relative="1" as="geometry">
            <mxPoint as="offset" />
          </mxGeometry>
        </mxCell>
        <mxCell id="0JroKW-J_Lcgd8uyPRVh-131" value="*" style="edgeLabel;html=1;align=center;verticalAlign=middle;resizable=0;points=[];" vertex="1" connectable="0" parent="0JroKW-J_Lcgd8uyPRVh-118">
          <mxGeometry x="0.9091" y="-2" relative="1" as="geometry">
            <mxPoint as="offset" />
          </mxGeometry>
        </mxCell>
        <mxCell id="0JroKW-J_Lcgd8uyPRVh-120" value="database diagram" style="text;strokeColor=none;fillColor=none;align=left;verticalAlign=middle;spacingLeft=4;spacingRight=4;overflow=hidden;points=[[0,0.5],[1,0.5]];portConstraint=eastwest;rotatable=0;whiteSpace=wrap;html=1;" vertex="1" parent="0JroKW-J_Lcgd8uyPRVh-121">
          <mxGeometry x="450" width="130" height="30" as="geometry" />
        </mxCell>
        <mxCell id="0JroKW-J_Lcgd8uyPRVh-125" value="..*" style="text;html=1;align=center;verticalAlign=middle;resizable=0;points=[];autosize=1;strokeColor=none;fillColor=none;" vertex="1" parent="1">
          <mxGeometry x="-1425" y="288" width="30" height="30" as="geometry" />
        </mxCell>
      </root>
    </mxGraphModel>
  </diagram>
</mxfile>
